mastitorrents.com 
http://mastitorrents.com/forums/torrents.php

Format                           : Matroska
File size                        : 636 MiB
Duration                         : 2h 6mn
Overall bit rate                 : 705 Kbps
Writing application              : AVI-Mux GUI 1.17.7, Aug  8 2006  20:59:17
Writing library                  : matroska muxer by Alexander Noe, build date Aug  8 2006

Video
ID                               : 1
Format                           : AVC
Format/Info                      : Advanced Video Codec
Format profile                   : High@L3.1
Format settings, CABAC           : Yes
Format settings, ReFrames        : 5 frames
Muxing mode                      : Container profile=Unknown@3.1
Codec ID                         : V_MPEG4/ISO/AVC
Duration                         : 2h 6mn
Bit rate                         : 574 Kbps
Width                            : 1 280 pixels
Height                           : 534 pixels
Display aspect ratio             : 2.35:1
Original display aspect ratio    : 2.35:1
Frame rate                       : 23.976 fps
Color space                      : YUV
Chroma subsampling               : 4:2:0
Bit depth                        : 8 bits
Scan type                        : Progressive
Bits/(Pixel*Frame)               : 0.035
Stream size                      : 508 MiB (80%)
Writing library                  : x264 core 68 r1183M f21daff

Audio
ID                               : 2
Format                           : MPEG Audio
Format version                   : Version 1
Format profile                   : Layer 2
Codec ID                         : A_MPEG/L2
Codec ID/Hint                    : MP2
Duration                         : 2h 6mn
Bit rate mode                    : Constant
Bit rate                         : 128 Kbps
Channel(s)                       : 2 channels
Sampling rate                    : 44.1 KHz
Video delay                      : 2s 0ms
Stream size                      : 115 MiB (18%) 
